<svg viewBox="0 0 29 41" style="fill: rgb(33, 170, 47); stroke: rgb(244, 250, 246); stroke-width: 0.125pt;"
     xmlns="http://www.w3.org/2000/svg">
    <path fill="#21aa2f" stroke="#f4faf6" style="fill-opacity: 0.54; stroke-opacity: 0.54;"
          d="M2.5 38.938c-.24 0-.438-.195-.438-.436V3.62c0-.24.196-.436.438-.436h24.38L22.344 9.59c-.087.123-.233.196-.39.196h-9.902c-.326 0-.59.25-.59.56V17.2c0 .308.264.56.59.56h8.466c.257 0 .466.196.466.436v5.73c0 .24-.21.436-.467.436h-8.467c-.326 0-.59.252-.59.562v6.852c0 .31.264.56.59.56h9.902c.156 0 .302.074.39.197l4.534 6.406H2.5z"></path>
    <path fill="#21aa2f" stroke="#f4faf6" style="stroke-width: 0.125pt;"
          d="M2.5 37.816c-.24 0-.438-.195-.438-.436V2.5c0-.24.196-.437.438-.437h24.38L22.344 8.47c-.087.122-.232.195-.39.195h-9.902c-.326 0-.59.25-.59.56v6.853c0 .31.264.56.59.56h8.466c.257 0 .466.197.466.437v5.73c0 .24-.21.436-.467.436h-8.467c-.326 0-.59.253-.59.563v6.852c0 .31.264.56.59.56h9.902c.157 0 .303.074.39.196l4.534 6.408H2.5z"></path>
</svg>
